<svg width="30" height="32" viewBox="0 0 30 32" fill="none" xmlns="http://www.w3.org/2000/svg">
<path d="M15 17.6667C19.6024 17.6667 23.3334 13.9357 23.3334 9.33333C23.3334 4.73096 19.6024 1 15 1C10.3976 1 6.66669 4.73096 6.66669 9.33333C6.66669 13.9357 10.3976 17.6667 15 17.6667Z" fill="#18A7E6" stroke="#18A7E6" stroke-width="2" stroke-linecap="round" stroke-linejoin="round"/>
<path d="M28.3334 31.0001C28.3334 27.4639 26.9286 24.0725 24.4281 21.572C21.9276 19.0715 18.5362 17.6667 15 17.6667C11.4638 17.6667 8.07241 19.0715 5.57193 21.572C3.07145 24.0725 1.66669 27.4639 1.66669 31.0001" stroke="#18A7E6" stroke-width="2" stroke-linecap="round" stroke-linejoin="round"/>
<path d="M15 17.6667C11.4638 17.6667 8.07241 19.0715 5.57193 21.572C3.07145 24.0725 1.66669 27.4639 1.66669 31.0001H28.3334C28.3334 27.4639 26.9286 24.0725 24.4281 21.572C21.9276 19.0715 18.5362 17.6667 15 17.6667Z" fill="#18A7E6" stroke="#18A7E6" stroke-width="2" stroke-linecap="round" stroke-linejoin="round"/>
</svg>
